#!OML:ASF E:\id_vita\Project 1\Capture day 1\Session 1\Female.ASF
:FULLY-SPECIFIED
:DEGREES
956
root 4.33512 12.8573 -0.848262 -321.088 -86.7588 17.5452
lowerback -2.03546 1.10197 -2.38584
upperback -1.62823 1.4924 -0.80582
thorax -0.567421 0.759278 0.532894
lowerneck 4.38579 -0.468747 -0.443659
upperneck 11.795 -1.59226 7.08599
head 3.11832 -0.727955 2.37975
rclavicle -1.51076e-014 -1.43125e-014
rhumerus 8.52047 24.0961 -74.47
rradius 41.2433
rwrist 19.6489
rhand -43.7299 623.559
rfingers 7.12502
rthumb -16.5612 67.1276
lclavicle -1.51076e-014 -1.43125e-014
lhumerus 15.3354 -40.0541 70.1923
lradius 45.4233
lwrist -18.1875
lhand -62.0238 -93.3161
lfingers 7.12502
lthumb -34.0763 -840.083
rfemur -102.734 10.1945 22.0178
rtibia 93.6513
rfoot -24.2314 -17.6126
rtoes -17.0463
lfemur -16.8576 -11.2256 -20.071
ltibia 24.8864
lfoot -11.786 -3.15415
ltoes -6.06876
957
root 4.1986 12.9034 -0.8527 -315.839 -87.045 12.6511
lowerback -2.78147 1.14124 -2.07934
upperback -1.57578 1.56165 -0.953915
thorax -0.0854928 0.785741 0.228827
lowerneck 3.55602 -0.311405 -1.0358
upperneck 12.396 -1.51862 7.78564
head 3.49823 -0.673338 2.74361
rclavicle 1.94809e-014 5.56597e-015
rhumerus 8.80332 24.0625 -74.7449
rradius 41.281
rwrist 19.6089
rhand -43.1231 624.207
rfingers 7.12502
rthumb -15.9769 66.4321
lclavicle 1.94809e-014 5.56597e-015
lhumerus 15.4457 -39.7751 69.7509
lradius 45.5909
lwrist -18.3325
lhand -62.1344 -92.4528
lfingers 7.12502
lthumb -34.1813 -839.196
rfemur -102.056 10.6075 22.0019
rtibia 93.3149
rfoot -24.631 -17.862
rtoes -17.0444
lfemur -16.7491 -10.8129 -19.9417
ltibia 24.127
lfoot -10.5491 -3.62669
ltoes -6.90312
958
root 4.1116 12.8902 -0.856214 -318.175 -86.9493 15.1786
lowerback -3.01394 1.05143 -2.03169
upperback -1.63141 1.44436 -1.04198
thorax -0.00682767 0.725104 0.113263
lowerneck 3.44385 -0.261401 -1.01999
upperneck 12.4243 -1.46372 7.86086
head 3.5274 -0.641198 2.76892
rclavicle 1.39149e-015 7.05686e-014
rhumerus 8.65526 23.9682 -74.9585
rradius 41.5514
rwrist 19.5946
rhand -43.0307 624.948
rfingers 7.12502
rthumb -15.8879 65.684
lclavicle 1.39149e-015 7.05686e-014
lhumerus 15.3908 -39.9102 69.4459
lradius 45.9292
lwrist -17.8226
lhand -62.1563 -92.1048
lfingers 7.12502
lthumb -34.2022 -838.843
rfemur -101.926 10.5398 21.863
rtibia 93.4099
rfoot -24.7052 -17.6502
rtoes -15.8591
lfemur -16.4387 -10.8227 -19.9226
ltibia 23.4009
lfoot -9.46602 -4.17872
ltoes -7.50399
959
root 4.02525 12.878 -0.862504 -319.356 -86.7896 16.4753
lowerback -3.16393 0.988615 -2.0837
upperback -1.65151 1.36495 -0.989945
thorax 0.0551812 0.685137 0.19607
lowerneck 3.58797 -0.204454 -1.04419
upperneck 12.1858 -1.35767 7.80848
head 3.41014 -0.597525 2.75156
rclavicle -1.74931e-014 -2.04748e-014
rhumerus 8.60369 23.9621 -74.8451
rradius 41.7412
rwrist 19.6618
rhand -42.8771 625
rfingers 7.12502
rthumb -15.74 65.6197
lclavicle -1.74931e-014 -2.04748e-014
lhumerus 15.6064 -40.2558 69.0488
lradius 46.2084
lwrist -17.2393
lhand -62.0729 -92.5971
lfingers 7.12502
lthumb -34.123 -839.354
rfemur -101.699 10.5221 21.8053
rtibia 93.5097
rfoot -24.5932 -14.6217
rtoes -7.83391
lfemur -16.018 -10.7803 -19.8161
ltibia 22.6356
lfoot -8.43418 -4.90234
ltoes -7.097
960
root 3.93678 12.8708 -0.864202 -318.11 -86.4297 15.1346
lowerback -3.11296 0.912357 -1.80308
upperback -1.64063 1.25461 -0.920616
thorax 0.0446497 0.628765 0.105962
lowerneck 3.95439 -0.0855077 -1.1009
upperneck 11.6865 -1.18611 8.13262
head 3.16552 -0.52397 2.86558
rclavicle 1.55052e-014 -1.31198e-014
rhumerus 8.6391 24.0401 -74.7201
rradius 41.8442
rwrist 19.5623
rhand -43.4621 624.954
rfingers 7.12502
rthumb -16.3033 65.7117
lclavicle 1.55052e-014 -1.31198e-014
lhumerus 15.7951 -40.5237 68.6488
lradius 46.3735
lwrist -16.9824
lhand -62.1125 -93.4901
lfingers 7.12502
lthumb -34.1605 -840.238
rfemur -101.14 10.4667 22.0528
rtibia 93.7669
rfoot -24.8188 -15.0848
rtoes -8.78296
lfemur -15.7317 -10.8173 -19.4873
ltibia 22.4827
lfoot -7.5053 -5.58733
ltoes -5.47209
